<svg width="36" height="36" viewBox="0 0 36 36" fill="none" xmlns="http://www.w3.org/2000/svg"><path d="M13.725 33l-1.762-6.413c-1.375-.875-2.463-2.062-3.263-3.562-.8-1.5-1.2-3.175-1.2-5.025 0-1.85.4-3.531 1.2-5.044.8-1.512 1.888-2.694 3.263-3.543L13.725 3h8.55l1.763 6.412c1.375.85 2.462 2.032 3.262 3.544.8 1.513 1.2 3.194 1.2 5.044 0 1.85-.4 3.525-1.2 5.025-.8 1.5-1.887 2.688-3.262 3.563L22.275 33h-8.55zM18 26.25c2.3 0 4.25-.8 5.85-2.4 1.6-1.6 2.4-3.55 2.4-5.85s-.8-4.25-2.4-5.85c-1.6-1.6-3.55-2.4-5.85-2.4s-4.25.8-5.85 2.4c-1.6 1.6-2.4 3.55-2.4 5.85s.8 4.25 2.4 5.85c1.6 1.6 3.55 2.4 5.85 2.4zM14.738 8.1a12.808 12.808 0 011.668-.394A9.906 9.906 0 0118 7.575c.525 0 1.056.044 1.594.131.537.088 1.093.219 1.668.394l-.675-2.85h-5.175l-.675 2.85zm.675 22.65h5.174l.675-2.85c-.575.15-1.13.269-1.668.356a9.907 9.907 0 01-1.594.131 9.906 9.906 0 01-1.594-.13 18.214 18.214 0 01-1.668-.357l.675 2.85zm0 0h-.675 6.524-5.85z" fill="#3C4043"/></svg>